<svg version="1.1" id="Layer_1" xmlns="http://www.w3.org/2000/svg" xmlns:xlink="http://www.w3.org/1999/xlink" x="0px" y="0px"
	 width="100%" viewBox="0 0 1033 185" enable-background="new 0 0 1033 185" xml:space="preserve">
<path fill="#FFFEFE" opacity="1.000000" stroke="none" 
	d="
M699.000000,186.000000 
	C466.047699,186.000000 233.595367,186.000000 1.071528,186.000000 
	C1.071528,124.393738 1.071528,62.787369 1.071528,1.090500 
	C345.333313,1.090500 689.666687,1.090500 1033.965454,1.090500 
	C1033.965454,62.738029 1033.965454,124.369026 1033.965454,186.000000 
	C922.453918,186.000000 810.976990,186.000000 699.000000,186.000000 
M581.020325,82.982079 
	C581.020325,82.982079 580.984070,82.973183 581.167847,83.629227 
	C586.484497,87.102745 591.469421,91.323921 597.199341,93.865860 
	C604.846252,97.258255 613.071838,99.346291 621.457092,102.714203 
	C625.056702,113.925362 615.697815,128.792038 602.667725,125.151825 
	C602.354614,120.297523 602.041504,115.443214 601.700745,110.161392 
	C598.677246,110.161392 595.904480,110.161392 593.038635,109.231606 
	C593.038635,106.658653 593.038635,104.085701 593.038635,101.124275 
	C586.753723,101.124275 581.128784,101.067215 575.505432,101.140091 
	C569.715027,101.215134 562.192017,99.265312 558.611145,102.151649 
	C554.823547,105.204567 554.619141,112.870613 553.152039,118.599098 
	C550.252686,129.919754 550.338989,129.941849 560.009766,136.711929 
	C561.315674,138.445633 562.264465,140.836807 564.000061,141.779419 
	C567.898315,143.896683 572.064209,145.747223 576.338074,146.907791 
	C595.248718,152.043015 614.362000,151.761673 633.509521,148.310150 
	C645.859131,146.084030 657.310547,141.821365 665.571716,131.851410 
	C668.896179,127.839302 671.216125,122.994858 674.163940,119.424416 
	C672.926331,126.121246 671.688782,132.818069 670.335388,140.141510 
	C674.149414,140.141510 677.565430,140.141510 680.939331,140.904739 
	C680.408142,143.444992 679.876892,145.985245 679.286926,148.806137 
	C693.362488,148.806137 706.947571,148.806137 720.649536,148.806137 
	C721.070862,147.602844 721.572144,146.552414 721.806396,145.445480 
	C725.582520,127.601318 729.526550,109.788742 732.966736,91.879539 
	C734.195496,85.482574 737.522034,81.462967 743.213989,79.834602 
	C742.298889,84.873589 741.486267,89.933777 740.449341,94.947578 
	C737.380615,109.785851 734.223389,124.605797 730.950867,140.144775 
	C734.973755,140.144775 738.421570,140.144775 741.799011,140.895538 
	C741.269897,143.446198 740.740845,145.996857 740.173279,148.733124 
	C754.184326,148.733124 767.757935,148.733124 781.696960,148.733124 
	C786.132019,127.802780 790.800110,107.106201 794.798706,86.281075 
	C796.530457,77.261543 795.538940,68.504196 785.496033,63.076820 
	C781.211121,56.004707 775.127502,51.872967 766.767395,50.877243 
	C757.556702,49.780205 749.120361,51.959831 741.011719,55.172352 
	C744.054321,40.746330 747.096863,26.320307 750.279358,11.230860 
	C746.285095,11.230860 742.990845,11.230860 739.777588,10.360851 
	C740.150696,7.813285 740.523865,5.265719 740.940796,2.419135 
	C726.836609,2.419135 713.265869,2.419135 699.554810,2.419135 
	C699.081238,3.994263 698.554565,5.377352 698.251831,6.807834 
	C692.828369,32.436768 687.489868,58.083832 682.001282,83.698761 
	C679.827637,93.842827 677.333374,103.918182 674.837219,113.092903 
	C674.894714,108.598198 675.220215,104.087547 674.954163,99.612083 
	C674.395325,90.212883 671.060486,82.137794 662.456970,76.224976 
	C656.055420,66.836823 646.480286,62.698326 635.954529,59.967411 
	C628.923584,58.143230 621.986389,55.957367 615.004395,53.063057 
	C614.799866,40.668278 621.020508,32.986389 632.647949,32.570229 
	C632.882751,37.574970 633.117493,42.579712 633.372375,48.012856 
	C636.587219,48.012856 639.367432,48.012856 642.125916,48.920258 
	C642.125916,51.363338 642.125916,53.806416 642.125916,56.826447 
	C652.842163,56.826447 663.235291,56.936123 673.618164,56.660923 
	C674.685059,56.632645 676.203796,54.457932 676.635986,53.016338 
	C678.438599,47.002842 679.893616,40.885590 681.499390,34.812542 
	C683.428467,27.516796 683.324036,27.250280 676.549744,23.907921 
	C675.664062,23.470942 674.716064,23.160259 673.813110,22.038736 
	C672.723694,20.237345 672.069397,17.731071 670.475342,16.747034 
	C658.591858,9.410792 645.340149,7.626189 631.678162,8.015975 
	C614.837830,8.496444 598.759583,11.687986 584.214783,20.890703 
	C561.239807,35.427288 557.919434,67.827080 580.134155,82.306595 
	C580.431641,82.544029 580.729065,82.781471 581.020325,82.982079 
M26.010509,136.989075 
	C26.010509,136.989075 25.980839,136.986725 26.130737,137.653351 
	C42.024860,154.245743 70.583450,155.382874 86.224014,140.010605 
	C88.162918,140.051956 90.101830,140.093292 92.171814,140.864639 
	C92.768623,142.766861 93.133636,144.791306 94.048401,146.525848 
	C94.605103,147.581451 95.990280,148.860672 97.036613,148.891006 
	C104.162292,149.097672 111.296814,148.999191 118.855110,148.999191 
	C122.774902,129.281036 126.630737,109.884666 130.640457,89.714165 
	C126.389160,89.714165 123.262283,89.714165 120.113815,88.920448 
	C120.481438,86.384041 120.849052,83.847633 121.295929,80.764404 
	C104.049530,80.764404 87.471634,80.729156 70.895012,80.857330 
	C69.960907,80.864540 68.471657,82.053741 68.209267,82.970123 
	C67.220154,86.424492 66.631737,89.993599 65.720482,94.344887 
	C69.564621,94.344887 72.837769,94.344887 76.100037,95.134644 
	C75.734604,97.791504 75.369171,100.448372 74.964905,103.387581 
	C77.203354,103.509331 78.820992,103.597313 80.227180,104.474487 
	C78.023636,109.073303 76.308746,114.001427 73.489357,118.185242 
	C70.175056,123.103493 65.558174,126.717102 58.810101,125.132576 
	C58.546585,122.832352 57.824955,120.477234 58.092918,118.240685 
	C60.022881,102.132545 61.247330,85.859726 64.545555,70.024452 
	C66.670341,59.823017 71.538376,50.093353 75.951759,40.509041 
	C78.255569,35.505978 82.609306,31.792974 88.841614,32.027874 
	C88.425919,40.858387 88.010223,49.688896 87.566330,59.118378 
	C90.785057,59.118378 93.892082,59.118378 96.998413,59.940235 
	C96.730881,62.394276 96.463356,64.848312 96.159546,67.635178 
	C107.834633,67.635178 119.218651,67.635178 130.722610,67.635178 
	C132.827255,57.082695 134.932098,46.833183 136.902557,36.557907 
	C138.627045,27.565374 138.560379,27.552412 129.467911,24.802523 
	C129.308899,24.754429 129.143631,24.726955 128.892426,23.883879 
	C129.638260,20.469248 128.684586,18.262444 124.978226,17.290092 
	C114.085854,14.432520 103.408829,10.125806 92.347572,8.678202 
	C72.630409,6.097786 53.550182,9.170938 36.308331,20.138220 
	C8.385399,37.899574 -0.792733,73.893814 4.576599,103.329956 
	C7.059491,116.941864 14.218266,127.538292 25.069324,136.559998 
	C25.385176,136.712708 25.701025,136.865433 26.010509,136.989075 
M1021.805847,62.697018 
	C1021.642395,62.459114 1021.417114,62.326244 1020.643250,61.785160 
	C1016.206421,54.114391 1009.340820,50.975330 1000.706055,50.744484 
	C989.884399,50.455177 979.966431,52.930576 971.019348,59.215801 
	C963.771545,64.307388 963.307800,63.992687 960.570312,55.731018 
	C960.080200,54.251842 958.239258,52.197273 956.971375,52.160660 
	C946.836243,51.868027 936.688904,51.997246 926.074158,51.997246 
	C917.516418,92.659363 909.017822,133.040558 900.416199,173.911270 
	C904.604370,174.130219 907.889160,174.301941 911.097473,175.234589 
	C910.742798,177.664902 910.388123,180.095215 909.935120,183.199234 
	C911.944946,183.199234 913.561584,183.199234 915.178284,183.199234 
	C924.672119,183.199249 934.166016,183.199326 943.659851,183.199295 
	C951.523438,183.199249 951.379150,183.167740 953.029785,175.597641 
	C955.924255,162.322388 959.015137,149.089951 962.530640,136.035172 
	C962.971375,136.349792 963.412109,136.664413 964.075928,137.500778 
	C964.387878,137.678848 964.699768,137.856903 965.008667,137.990128 
	C965.008667,137.990128 964.964539,137.998703 964.996948,138.691589 
	C979.496704,156.647049 1009.127380,154.441391 1021.230652,134.202362 
	C1030.920898,117.998459 1033.875732,100.024498 1032.687988,81.446632 
	C1032.205444,73.896591 1029.726807,66.692986 1021.990967,63.000210 
	C1021.990967,63.000210 1022.010986,63.046959 1021.805847,62.697018 
M900.892578,67.408417 
	C900.560669,67.162491 900.228760,66.916573 899.476379,66.206596 
	C893.431396,57.142971 884.536499,52.716320 874.133545,51.109470 
	C860.729675,49.039108 847.289734,49.063221 834.018127,52.097851 
	C818.200867,55.714535 806.161255,64.415886 799.329407,79.436226 
	C792.009460,95.529648 791.358765,123.523872 811.165955,136.334732 
	C815.584473,142.352539 821.603577,146.002411 828.698914,147.910919 
	C841.570801,151.373230 854.603088,151.513580 867.706055,149.475998 
	C877.002563,148.030304 885.872864,145.284683 893.555664,139.715500 
	C911.354187,126.813591 918.711243,96.356148 908.611511,76.688629 
	C906.900940,73.357658 903.576111,70.855644 900.991028,68.008842 
	C900.991028,68.008842 901.029541,68.012085 900.892578,67.408417 
M445.010803,136.990204 
	C445.010803,136.990204 444.977814,136.989609 445.036560,137.674744 
	C449.642273,140.800919 453.866974,144.930542 458.929810,146.852737 
	C470.957733,151.419373 483.630341,151.336288 496.349121,150.037689 
	C530.196960,146.581741 545.939453,125.851608 545.591919,95.401497 
	C545.466858,84.446281 543.130981,73.802811 532.980591,66.998749 
	C532.980591,66.998749 532.982605,67.065765 532.785645,66.649506 
	C532.602722,66.373825 532.346252,66.224052 531.547729,65.701706 
	C526.762695,58.300606 519.764893,54.006992 511.381561,52.129482 
	C495.221741,48.510365 478.995758,48.639091 463.053009,53.174263 
	C445.937744,58.042984 434.749817,69.274841 429.062225,85.787537 
	C428.709503,84.032944 428.277557,82.289986 428.017792,80.521736 
	C426.915833,73.020081 424.489227,66.359413 416.691895,62.230827 
	C412.019745,54.151119 404.828918,50.061718 395.711975,50.887360 
	C388.427063,51.547085 381.274689,53.670265 374.110687,54.332649 
	C377.131592,40.173504 380.152466,26.014359 383.311066,11.209850 
	C379.187347,11.209850 375.900482,11.209850 372.721222,10.345616 
	C373.118835,7.805227 373.516449,5.264839 373.951019,2.488256 
	C359.800842,2.488256 346.210236,2.488256 332.245392,2.488256 
	C322.571136,48.253868 312.930145,93.862190 303.147156,140.142166 
	C307.036682,140.142166 310.501434,140.142166 313.931122,140.946030 
	C313.532684,143.465897 313.134247,145.985779 312.657471,149.000870 
	C319.033203,149.000870 324.796936,148.225708 330.269012,149.159668 
	C342.245605,151.203888 349.787903,146.330856 354.981262,135.732590 
	C355.657532,136.012909 356.333832,136.293213 357.166748,137.317490 
	C368.022888,149.746048 381.954071,152.840118 397.290161,149.271484 
	C410.543030,146.187637 417.223389,135.729584 421.808990,123.857925 
	C423.818481,118.655540 425.265625,113.235939 427.604340,108.374672 
	C428.948303,119.926399 434.275391,129.138901 444.037018,136.437729 
	C444.362915,136.632812 444.688782,136.827896 445.010803,136.990204 
M206.929764,136.023285 
	C206.929764,136.023285 206.874512,136.076782 206.911987,136.771164 
	C211.046661,142.926956 217.247314,146.073807 224.079330,147.903183 
	C237.097900,151.389114 250.289078,151.532516 263.568726,149.307510 
	C274.414917,147.490189 284.720306,144.245026 292.744263,136.462646 
	C306.550568,123.071999 309.814667,106.184158 307.293549,87.850594 
	C306.111877,79.257103 303.035095,71.438637 294.575928,66.193947 
	C288.099304,56.381618 278.447235,51.755142 267.225800,51.017529 
	C256.665863,50.323399 245.920090,50.011070 235.432312,51.151508 
	C210.431763,53.870060 194.269012,69.311974 190.596069,94.093262 
	C188.214188,110.163849 190.951431,125.098534 206.022461,135.673950 
	C206.340485,135.810745 206.658493,135.947540 206.929764,136.023285 
M194.931030,10.371905 
	C195.323502,7.838677 195.715973,5.305449 196.190338,2.243591 
	C184.059265,2.243591 172.600845,2.566826 161.174911,2.098225 
	C155.976547,1.885031 154.063126,3.492094 153.031570,8.521892 
	C145.966705,42.969673 138.586243,77.352669 131.334183,111.762169 
	C129.395248,120.962036 127.549095,130.181473 125.509491,140.127518 
	C129.509247,140.127518 132.799133,140.127518 136.051926,140.944061 
	C135.679626,143.473389 135.307327,146.002716 134.867386,148.991638 
	C148.300354,148.991638 161.090958,149.090973 173.873413,148.813812 
	C174.963196,148.790176 176.634644,146.396576 176.966248,144.871399 
	C185.288910,106.591980 193.482620,68.284477 201.657074,29.972958 
	C202.946884,23.927982 204.035156,17.840010 205.321304,11.234275 
	C201.209717,11.234275 198.071106,11.234275 194.931030,10.371905 
z"/>
<path fill="#8C53FF" opacity="1.000000" stroke="none" 
	d="
M92.040733,140.134628 
	C90.101830,140.093292 88.162918,140.051956 85.705841,139.617554 
	C84.162865,135.483002 83.138077,131.741516 81.894630,127.201744 
	C79.934738,128.879868 78.827263,129.795959 77.754868,130.751419 
	C68.622543,138.888016 58.107552,143.072128 45.803650,141.188339 
	C39.137875,140.167740 32.584770,138.411240 25.980839,136.986725 
	C25.980839,136.986725 26.010509,136.989075 25.956055,136.710846 
	C25.538227,136.313324 25.174854,136.194046 24.811481,136.074783 
	C14.218266,127.538292 7.059491,116.941864 4.576599,103.329956 
	C-0.792733,73.893814 8.385399,37.899574 36.308331,20.138220 
	C53.550182,9.170938 72.630409,6.097786 92.347572,8.678202 
	C103.408829,10.125806 114.085854,14.432520 124.978226,17.290092 
	C128.684586,18.262444 129.638260,20.469248 128.676041,24.594206 
	C126.200294,36.412224 123.940933,47.519913 121.581741,59.118378 
	C113.164261,59.118378 105.081680,59.118378 96.999100,59.118378 
	C93.892082,59.118378 90.785057,59.118378 87.566330,59.118378 
	C88.010223,49.688896 88.425919,40.858387 88.801109,31.216255 
	C87.160744,20.463425 78.427063,19.868324 72.391991,25.319437 
	C69.130157,28.265652 65.815033,31.896599 64.301964,35.891979 
	C60.204185,46.712505 55.984386,57.686329 53.807339,68.983681 
	C51.152180,82.762070 50.088589,96.904022 49.189243,110.943344 
	C48.617619,119.866737 52.587147,124.880997 58.920784,125.946404 
	C65.558174,126.717102 70.175056,123.103493 73.489357,118.185242 
	C76.308746,114.001427 78.023636,109.073303 80.521286,103.825371 
	C81.516090,100.374901 82.216789,97.573555 83.024361,94.344887 
	C80.285591,94.344887 78.198250,94.344887 76.110909,94.344887 
	C72.837769,94.344887 69.564621,94.344887 65.720482,94.344887 
	C66.631737,89.993599 67.220154,86.424492 68.209267,82.970123 
	C68.471657,82.053741 69.960907,80.864540 70.895012,80.857330 
	C87.471634,80.729156 104.049530,80.764404 121.295929,80.764404 
	C120.849052,83.847633 120.481438,86.384041 120.022141,89.726738 
	C119.681725,91.326294 119.355080,92.104263 119.195847,92.915100 
	C116.417557,107.062492 113.596779,121.202110 110.942101,135.372803 
	C110.282738,138.892410 108.815430,140.406601 105.007111,140.091873 
	C100.715477,139.737213 96.365395,140.089722 92.040733,140.134628 
z"/>
<path fill="#FFDE5A" opacity="1.000000" stroke="none" 
	d="
M602.755737,125.964478 
	C615.697815,128.792038 625.056702,113.925362 621.215576,102.007126 
	C618.572327,98.866531 616.600220,95.327484 613.691956,94.197067 
	C602.956909,90.024544 591.912292,86.648628 580.984070,82.973190 
	C580.984070,82.973183 581.020325,82.982079 580.976074,82.707245 
	C580.611023,82.198822 580.290161,81.965240 579.969360,81.731659 
	C557.919434,67.827080 561.239807,35.427288 584.214783,20.890703 
	C598.759583,11.687986 614.837830,8.496444 631.678162,8.015975 
	C645.340149,7.626189 658.591858,9.410792 670.475342,16.747034 
	C672.069397,17.731071 672.723694,20.237345 673.563782,22.698540 
	C671.497803,30.092144 669.519836,36.788227 667.932983,43.575756 
	C667.147217,46.936642 665.658325,48.132004 662.130005,47.984131 
	C655.481323,47.705486 648.809753,47.972607 642.147705,48.012856 
	C639.367432,48.012856 636.587219,48.012856 633.372375,48.012856 
	C633.117493,42.579712 632.882751,37.574970 632.385132,31.846327 
	C631.825378,27.007423 629.765808,24.184521 625.748657,23.179321 
	C618.292175,21.313475 609.657532,27.216896 606.848511,35.934376 
	C604.084656,44.512028 606.760864,50.416145 615.007263,53.933372 
	C621.986389,55.957367 628.923584,58.143230 635.954529,59.967411 
	C646.480286,62.698326 656.055420,66.836823 662.684082,76.880051 
	C663.073425,78.178162 663.195190,78.834610 663.403625,79.462288 
	C671.690002,104.413589 661.706726,126.798485 637.602356,135.749878 
	C625.408691,140.278122 612.656738,141.363739 599.866638,141.787338 
	C586.325684,142.235779 573.057068,140.065277 560.128174,135.955994 
	C550.338989,129.941849 550.252686,129.919754 553.152039,118.599098 
	C554.619141,112.870613 554.823547,105.204567 558.611145,102.151649 
	C562.192017,99.265312 569.715027,101.215134 575.505432,101.140091 
	C581.128784,101.067215 586.753723,101.124275 593.038635,101.124275 
	C593.038635,104.085701 593.038635,106.658653 593.040649,110.101318 
	C593.192139,119.882607 596.214600,124.548203 602.755737,125.964478 
z"/>
<path fill="#8D53FF" opacity="1.000000" stroke="none" 
	d="
M313.966156,140.142166 
	C310.501434,140.142166 307.036682,140.142166 303.147156,140.142166 
	C312.930145,93.862190 322.571136,48.253868 332.245392,2.488256 
	C346.210236,2.488256 359.800842,2.488256 373.951019,2.488256 
	C373.516449,5.264839 373.118835,7.805227 372.474854,11.061771 
	C368.511353,29.342260 364.794220,46.906593 360.842529,65.579094 
	C365.877838,61.604774 369.970673,58.374329 374.063507,55.143883 
	C381.274689,53.670265 388.427063,51.547085 395.711975,50.887360 
	C404.828918,50.061718 412.019745,54.151119 416.895325,62.916901 
	C422.093414,85.657982 418.533508,106.576469 407.203583,125.811211 
	C399.921082,138.174652 388.129791,143.411591 373.712067,141.022141 
	C368.054382,140.084518 362.572205,138.087891 357.010101,136.573532 
	C356.333832,136.293213 355.657532,136.012909 354.594727,135.400482 
	C351.543091,132.252899 348.877960,129.437454 345.904358,126.296143 
	C343.209686,130.221771 340.953369,133.300308 338.928101,136.523972 
	C337.257996,139.182327 335.187561,140.230270 331.942627,140.088257 
	C325.962738,139.826599 319.959595,140.094788 313.966156,140.142166 
M360.629059,121.749931 
	C363.297852,119.465393 366.840057,117.679489 368.479767,114.807426 
	C374.603729,104.080902 376.326843,92.114761 376.905243,79.161606 
	C376.160278,72.505676 372.286316,68.893982 367.578796,70.821129 
	C362.506409,72.897652 358.470032,76.259628 357.192596,81.953896 
	C355.095093,91.303665 353.022491,100.660301 351.080566,110.043259 
	C349.672882,116.844627 352.813324,120.879669 360.629059,121.749931 
z"/>
<path fill="#FFDE5A" opacity="1.000000" stroke="none" 
	d="
M680.981445,140.141510 
	C677.565430,140.141510 674.149414,140.141510 670.335388,140.141510 
	C671.688782,132.818069 672.926331,126.121246 674.070923,118.996292 
	C673.977905,118.568169 673.982178,118.538292 674.294189,118.269119 
	C674.742249,116.653259 674.878174,115.306580 675.012817,113.978844 
	C675.011536,113.997787 674.985107,114.024811 674.985107,114.024811 
	C677.333374,103.918182 679.827637,93.842827 682.001282,83.698761 
	C687.489868,58.083832 692.828369,32.436768 698.251831,6.807834 
	C698.554565,5.377352 699.081238,3.994263 699.554810,2.419135 
	C713.265869,2.419135 726.836609,2.419135 740.940796,2.419135 
	C740.523865,5.265719 740.150696,7.813285 739.536438,11.072993 
	C735.545654,29.353270 731.796021,46.921406 727.789124,65.694923 
	C732.853149,61.965729 736.919434,58.971264 740.985718,55.976795 
	C749.120361,51.959831 757.556702,49.780205 766.767395,50.877243 
	C775.127502,51.872967 781.211121,56.004707 785.699585,63.787918 
	C787.217163,74.971931 784.357056,84.931702 782.190857,94.984184 
	C778.984680,109.862892 775.839355,124.754707 772.560791,140.144775 
	C762.106323,140.144775 751.987793,140.144775 741.869324,140.144775 
	C738.421570,140.144775 734.973755,140.144775 730.950867,140.144775 
	C734.223389,124.605797 737.380615,109.785851 740.449341,94.947578 
	C741.486267,89.933777 742.298889,84.873589 743.427734,79.103165 
	C744.132324,72.505440 740.134521,67.936432 735.398682,69.574898 
	C730.327454,71.329422 725.987488,74.260315 724.735596,80.263336 
	C720.885498,98.724747 716.833252,117.144020 712.981506,135.605103 
	C712.296997,138.885635 710.976746,140.208618 707.366699,140.099152 
	C698.580078,139.832718 689.777588,140.093231 680.981445,140.141510 
z"/>
<path fill="#FFDE5A" opacity="1.000000" stroke="none" 
	d="
M963.852844,136.979034 
	C963.412109,136.664413 962.971375,136.349792 962.093750,135.668427 
	C958.700928,132.582962 955.744934,129.864243 952.319031,126.713280 
	C949.135315,141.430725 945.964294,155.481018 943.135681,169.599930 
	C942.441406,173.065445 941.124878,174.280273 937.588928,174.229324 
	C928.786926,174.102539 919.979309,174.366562 911.173950,174.473663 
	C907.889160,174.301941 904.604370,174.130219 900.416199,173.911270 
	C909.017822,133.040558 917.516418,92.659363 926.074158,51.997246 
	C936.688904,51.997246 946.836243,51.868027 956.971375,52.160660 
	C958.239258,52.197273 960.080200,54.251842 960.570312,55.731018 
	C963.307800,63.992687 963.771545,64.307388 971.019348,59.215801 
	C979.966431,52.930576 989.884399,50.455177 1000.706055,50.744484 
	C1009.340820,50.975330 1016.206421,54.114391 1020.966187,62.235321 
	C1021.450134,62.964611 1021.690735,63.085106 1022.010986,63.046959 
	C1022.010986,63.046959 1021.990967,63.000210 1021.923218,63.421745 
	C1026.320923,82.933884 1022.740417,101.178955 1015.451599,118.814453 
	C1008.286438,136.150833 994.114075,143.866669 975.975342,140.903015 
	C972.246460,140.293747 968.631836,138.985031 964.964539,137.998703 
	C964.964539,137.998703 965.008667,137.990128 964.936218,137.736176 
	C964.526794,137.314499 964.189819,137.146774 963.852844,136.979034 
M965.383301,121.217171 
	C967.994019,118.947838 971.504395,117.168594 973.055176,114.321861 
	C978.852295,103.679802 980.908142,91.994598 981.005493,79.102203 
	C980.019043,76.457008 979.786255,72.512505 977.900085,71.418404 
	C972.908752,68.523140 963.349670,74.178680 962.044739,80.156204 
	C959.749939,90.667908 957.492615,101.188087 955.285706,111.718567 
	C954.136414,117.202583 958.690552,121.751060 965.383301,121.217171 
z"/>
<path fill="#FEDE5A" opacity="1.000000" stroke="none" 
	d="
M810.953064,135.620331 
	C791.358765,123.523872 792.009460,95.529648 799.329407,79.436226 
	C806.161255,64.415886 818.200867,55.714535 834.018127,52.097851 
	C847.289734,49.063221 860.729675,49.039108 874.133545,51.109470 
	C884.536499,52.716320 893.431396,57.142971 899.750854,66.766830 
	C900.360107,67.555397 900.694824,67.783737 901.029541,68.012085 
	C901.029541,68.012085 900.991028,68.008842 900.897949,68.397644 
	C903.308533,78.476936 904.854736,88.152550 903.114075,98.271233 
	C900.324890,114.485558 893.160706,127.808250 877.697266,134.565277 
	C855.792480,144.136978 833.347961,144.544510 810.953064,135.620331 
M862.014160,72.726089 
	C862.026367,69.150917 861.984741,65.312202 857.798523,64.133194 
	C853.720459,62.984650 850.377258,64.888451 847.880249,68.226364 
	C847.681396,68.492119 847.471924,68.751999 847.295654,69.032341 
	C837.332703,84.878853 835.250000,102.489853 836.266663,120.617043 
	C836.580505,126.212288 840.050781,128.197800 845.671936,127.029198 
	C851.838318,124.661125 853.892334,118.963036 855.828430,113.586189 
	C860.478821,100.670921 862.492615,87.257866 862.014160,72.726089 
z"/>
<path fill="#8D53FF" opacity="1.000000" stroke="none" 
	d="
M205.762985,135.188599 
	C190.951431,125.098534 188.214188,110.163849 190.596069,94.093262 
	C194.269012,69.311974 210.431763,53.870060 235.432312,51.151508 
	C245.920090,50.011070 256.665863,50.323399 267.225800,51.017529 
	C278.447235,51.755142 288.099304,56.381618 294.807007,66.843811 
	C298.681763,75.767838 299.645508,84.506760 298.916626,93.374962 
	C297.633881,108.981339 292.057037,122.626266 278.519440,131.557114 
	C264.592438,140.744888 248.600266,142.416473 232.533081,141.405304 
	C223.902618,140.862152 215.422485,137.930603 206.874512,136.076782 
	C206.874512,136.076782 206.929764,136.023285 206.820023,135.822266 
	C206.394516,135.477020 206.078751,135.332809 205.762985,135.188599 
M257.113159,72.373161 
	C256.017700,69.629761 255.666779,65.588036 253.658524,64.436378 
	C250.350922,62.539581 246.530411,64.341019 243.970001,67.445381 
	C242.501083,69.226357 241.025955,71.086296 239.998840,73.134010 
	C233.219086,86.650581 231.024826,101.177162 231.076782,116.105545 
	C231.086319,118.843605 231.740784,121.753136 232.826736,124.268738 
	C234.116440,127.256332 236.565002,128.917587 240.766434,127.077469 
	C242.784622,125.450912 245.364883,124.185577 246.694580,122.116547 
	C248.913101,118.664497 250.806442,114.842606 251.998489,110.921585 
	C255.723221,98.669456 258.049652,86.165039 257.113159,72.373161 
z"/>
<path fill="#8C53FF" opacity="1.000000" stroke="none" 
	d="
M429.575867,86.377449 
	C434.749817,69.274841 445.937744,58.042984 463.053009,53.174263 
	C478.995758,48.639091 495.221741,48.510365 511.381561,52.129482 
	C519.764893,54.006992 526.762695,58.300606 531.869263,66.168259 
	C532.365112,66.942924 532.629028,67.086571 532.982605,67.065765 
	C532.982605,67.065765 532.980591,66.998749 532.939514,67.408463 
	C536.210571,77.186272 537.294922,86.787987 536.021729,96.660271 
	C534.604431,107.648628 530.894226,117.609497 522.971313,125.633118 
	C508.314880,140.475922 489.445862,142.038956 470.299255,141.379532 
	C461.818451,141.087463 453.415894,138.522690 444.977814,136.989609 
	C444.977814,136.989609 445.010803,136.990204 444.939087,136.708130 
	C444.502045,136.251770 444.136658,136.077454 443.771301,135.903152 
	C434.275391,129.138901 428.948303,119.926399 427.299438,107.703415 
	C427.854980,100.147255 428.715424,93.262352 429.575867,86.377449 
M494.962524,72.837433 
	C494.632294,69.403152 494.914429,65.396980 490.744263,64.157967 
	C486.941742,63.028214 483.491180,64.483673 481.034149,67.651558 
	C479.618378,69.476929 477.953308,71.375740 477.339874,73.511322 
	C474.387360,83.790512 471.292236,94.069153 469.199982,104.538292 
	C468.126709,109.908806 468.632172,115.719788 469.190948,121.254280 
	C469.690399,126.201355 472.901398,128.048279 477.991302,127.009483 
	C483.931213,125.416077 485.951111,120.219688 487.854218,115.417229 
	C493.160004,102.028267 495.048828,87.968437 494.962524,72.837433 
z"/>
<path fill="#8D53FF" opacity="1.000000" stroke="none" 
	d="
M136.089035,140.127518 
	C132.799133,140.127518 129.509247,140.127518 125.509491,140.127518 
	C127.549095,130.181473 129.395248,120.962036 131.334183,111.762169 
	C138.586243,77.352669 145.966705,42.969673 153.031570,8.521892 
	C154.063126,3.492094 155.976547,1.885031 161.174911,2.098225 
	C172.600845,2.566826 184.059265,2.243591 196.190338,2.243591 
	C195.715973,5.305449 195.323502,7.838677 194.766205,11.124799 
	C185.758179,53.163155 176.855011,94.436043 168.182831,135.757385 
	C167.470428,139.151886 166.248993,140.102249 163.016052,140.057297 
	C154.042450,139.932480 145.064972,140.084732 136.089035,140.127518 
z"/>
<path fill="#9A9A9B" opacity="1.000000" stroke="none" 
	d="
M136.070480,140.535797 
	C145.064972,140.084732 154.042450,139.932480 163.016052,140.057297 
	C166.248993,140.102249 167.470428,139.151886 168.182831,135.757385 
	C176.855011,94.436043 185.758179,53.163155 194.766937,11.555984 
	C198.071106,11.234275 201.209717,11.234275 205.321304,11.234275 
	C204.035156,17.840010 202.946884,23.927982 201.657074,29.972958 
	C193.482620,68.284477 185.288910,106.591980 176.966248,144.871399 
	C176.634644,146.396576 174.963196,148.790176 173.873413,148.813812 
	C161.090958,149.090973 148.300354,148.991638 134.867386,148.991638 
	C135.307327,146.002716 135.679626,143.473389 136.070480,140.535797 
z"/>
<path fill="#9C9B9A" opacity="1.000000" stroke="none" 
	d="
M673.982178,118.538292 
	C673.982178,118.538292 673.977905,118.568169 673.985596,118.548714 
	C671.216125,122.994858 668.896179,127.839302 665.571716,131.851410 
	C657.310547,141.821365 645.859131,146.084030 633.509521,148.310150 
	C614.362000,151.761673 595.248718,152.043015 576.338074,146.907791 
	C572.064209,145.747223 567.898315,143.896683 564.000061,141.779419 
	C562.264465,140.836807 561.315674,138.445633 560.068970,136.333954 
	C573.057068,140.065277 586.325684,142.235779 599.866638,141.787338 
	C612.656738,141.363739 625.408691,140.278122 637.602356,135.749878 
	C661.706726,126.798485 671.690002,104.413589 663.403625,79.462288 
	C663.195190,78.834610 663.073425,78.178162 662.892090,77.113953 
	C671.060486,82.137794 674.395325,90.212883 674.954163,99.612083 
	C675.220215,104.087547 674.894714,108.598198 674.911133,113.558853 
	C674.985107,114.024811 675.011536,113.997787 674.695740,114.235443 
	C674.247375,115.828171 674.114746,117.183228 673.982178,118.538292 
z"/>
<path fill="#9B9A9C" opacity="1.000000" stroke="none" 
	d="
M206.893250,136.423981 
	C215.422485,137.930603 223.902618,140.862152 232.533081,141.405304 
	C248.600266,142.416473 264.592438,140.744888 278.519440,131.557114 
	C292.057037,122.626266 297.633881,108.981339 298.916626,93.374962 
	C299.645508,84.506760 298.681763,75.767838 295.012054,67.086609 
	C303.035095,71.438637 306.111877,79.257103 307.293549,87.850594 
	C309.814667,106.184158 306.550568,123.071999 292.744263,136.462646 
	C284.720306,144.245026 274.414917,147.490189 263.568726,149.307510 
	C250.289078,151.532516 237.097900,151.389114 224.079330,147.903183 
	C217.247314,146.073807 211.046661,142.926956 206.893250,136.423981 
z"/>
<path fill="#9B9A9C" opacity="1.000000" stroke="none" 
	d="
M445.007202,137.332184 
	C453.415894,138.522690 461.818451,141.087463 470.299255,141.379532 
	C489.445862,142.038956 508.314880,140.475922 522.971313,125.633118 
	C530.894226,117.609497 534.604431,107.648628 536.021729,96.660271 
	C537.294922,86.787987 536.210571,77.186272 532.909241,67.422836 
	C543.130981,73.802811 545.466858,84.446281 545.591919,95.401497 
	C545.939453,125.851608 530.196960,146.581741 496.349121,150.037689 
	C483.630341,151.336288 470.957733,151.419373 458.929810,146.852737 
	C453.866974,144.930542 449.642273,140.800919 445.007202,137.332184 
z"/>
<path fill="#9C9B9A" opacity="1.000000" stroke="none" 
	d="
M811.059509,135.977539 
	C833.347961,144.544510 855.792480,144.136978 877.697266,134.565277 
	C893.160706,127.808250 900.324890,114.485558 903.114075,98.271233 
	C904.854736,88.152550 903.308533,78.476936 900.901001,68.378555 
	C903.576111,70.855644 906.900940,73.357658 908.611511,76.688629 
	C918.711243,96.356148 911.354187,126.813591 893.555664,139.715500 
	C885.872864,145.284683 877.002563,148.030304 867.706055,149.475998 
	C854.603088,151.513580 841.570801,151.373230 828.698914,147.910919 
	C821.603577,146.002411 815.584473,142.352539 811.059509,135.977539 
z"/>
<path fill="#9A999C" opacity="1.000000" stroke="none" 
	d="
M429.319031,86.082489 
	C428.715424,93.262352 427.854980,100.147255 426.981323,107.473564 
	C425.265625,113.235939 423.818481,118.655540 421.808990,123.857925 
	C417.223389,135.729584 410.543030,146.187637 397.290161,149.271484 
	C381.954071,152.840118 368.022888,149.746048 357.088440,136.945511 
	C362.572205,138.087891 368.054382,140.084518 373.712067,141.022141 
	C388.129791,143.411591 399.921082,138.174652 407.203583,125.811211 
	C418.533508,106.576469 422.093414,85.657982 417.078644,63.189548 
	C424.489227,66.359413 426.915833,73.020081 428.017792,80.521736 
	C428.277557,82.289986 428.709503,84.032944 429.319031,86.082489 
z"/>
<path fill="#9C9B9A" opacity="1.000000" stroke="none" 
	d="
M964.980713,138.345154 
	C968.631836,138.985031 972.246460,140.293747 975.975342,140.903015 
	C994.114075,143.866669 1008.286438,136.150833 1015.451599,118.814453 
	C1022.740417,101.178955 1026.320923,82.933884 1021.897888,63.423668 
	C1029.726807,66.692986 1032.205444,73.896591 1032.687988,81.446632 
	C1033.875732,100.024498 1030.920898,117.998459 1021.230652,134.202362 
	C1009.127380,154.441391 979.496704,156.647049 964.980713,138.345154 
z"/>
<path fill="#9B9B9A" opacity="1.000000" stroke="none" 
	d="
M680.960388,140.523132 
	C689.777588,140.093231 698.580078,139.832718 707.366699,140.099152 
	C710.976746,140.208618 712.296997,138.885635 712.981506,135.605103 
	C716.833252,117.144020 720.885498,98.724747 724.735596,80.263336 
	C725.987488,74.260315 730.327454,71.329422 735.398682,69.574898 
	C740.134521,67.936432 744.132324,72.505440 743.428711,78.668320 
	C737.522034,81.462967 734.195496,85.482574 732.966736,91.879539 
	C729.526550,109.788742 725.582520,127.601318 721.806396,145.445480 
	C721.572144,146.552414 721.070862,147.602844 720.649536,148.806137 
	C706.947571,148.806137 693.362488,148.806137 679.286926,148.806137 
	C679.876892,145.985245 680.408142,143.444992 680.960388,140.523132 
z"/>
<path fill="#9A999B" opacity="1.000000" stroke="none" 
	d="
M58.865440,125.539490 
	C52.587147,124.880997 48.617619,119.866737 49.189243,110.943344 
	C50.088589,96.904022 51.152180,82.762070 53.807339,68.983681 
	C55.984386,57.686329 60.204185,46.712505 64.301964,35.891979 
	C65.815033,31.896599 69.130157,28.265652 72.391991,25.319437 
	C78.427063,19.868324 87.160744,20.463425 88.712219,30.768669 
	C82.609306,31.792974 78.255569,35.505978 75.951759,40.509041 
	C71.538376,50.093353 66.670341,59.823017 64.545555,70.024452 
	C61.247330,85.859726 60.022881,102.132545 58.092918,118.240685 
	C57.824955,120.477234 58.546585,122.832352 58.865440,125.539490 
z"/>
<path fill="#9B9B99" opacity="1.000000" stroke="none" 
	d="
M741.834167,140.520157 
	C751.987793,140.144775 762.106323,140.144775 772.560791,140.144775 
	C775.839355,124.754707 778.984680,109.862892 782.190857,94.984184 
	C784.357056,84.931702 787.217163,74.971931 785.933716,63.991264 
	C795.538940,68.504196 796.530457,77.261543 794.798706,86.281075 
	C790.800110,107.106201 786.132019,127.802780 781.696960,148.733124 
	C767.757935,148.733124 754.184326,148.733124 740.173279,148.733124 
	C740.740845,145.996857 741.269897,143.446198 741.834167,140.520157 
z"/>
<path fill="#9C9B98" opacity="1.000000" stroke="none" 
	d="
M911.135742,174.854126 
	C919.979309,174.366562 928.786926,174.102539 937.588928,174.229324 
	C941.124878,174.280273 942.441406,173.065445 943.135681,169.599930 
	C945.964294,155.481018 949.135315,141.430725 952.319031,126.713280 
	C955.744934,129.864243 958.700928,132.582962 961.840332,135.570648 
	C959.015137,149.089951 955.924255,162.322388 953.029785,175.597641 
	C951.379150,183.167740 951.523438,183.199249 943.659851,183.199295 
	C934.166016,183.199326 924.672119,183.199249 915.178284,183.199234 
	C913.561584,183.199234 911.944946,183.199234 909.935120,183.199234 
	C910.388123,180.095215 910.742798,177.664902 911.135742,174.854126 
z"/>
<path fill="#9A9A9B" opacity="1.000000" stroke="none" 
	d="
M92.106277,140.499634 
	C96.365395,140.089722 100.715477,139.737213 105.007111,140.091873 
	C108.815430,140.406601 110.282738,138.892410 110.942101,135.372803 
	C113.596779,121.202110 116.417557,107.062492 119.195847,92.915100 
	C119.355080,92.104263 119.681725,91.326294 120.032936,90.123596 
	C123.262283,89.714165 126.389160,89.714165 130.640457,89.714165 
	C126.630737,109.884666 122.774902,129.281036 118.855110,148.999191 
	C111.296814,148.999191 104.162292,149.097672 97.036613,148.891006 
	C95.990280,148.860672 94.605103,147.581451 94.048401,146.525848 
	C93.133636,144.791306 92.768623,142.766861 92.106277,140.499634 
z"/>
<path fill="#9B9A9B" opacity="1.000000" stroke="none" 
	d="
M96.998756,59.529305 
	C105.081680,59.118378 113.164261,59.118378 121.581741,59.118378 
	C123.940933,47.519913 126.200294,36.412224 128.720474,24.997196 
	C129.143631,24.726955 129.308899,24.754429 129.467911,24.802523 
	C138.560379,27.552412 138.627045,27.565374 136.902557,36.557907 
	C134.932098,46.833183 132.827255,57.082695 130.722610,67.635178 
	C119.218651,67.635178 107.834633,67.635178 96.159546,67.635178 
	C96.463356,64.848312 96.730881,62.394276 96.998756,59.529305 
z"/>
<path fill="#9D9C9C" opacity="1.000000" stroke="none" 
	d="
M642.136841,48.466557 
	C648.809753,47.972607 655.481323,47.705486 662.130005,47.984131 
	C665.658325,48.132004 667.147217,46.936642 667.932983,43.575756 
	C669.519836,36.788227 671.497803,30.092144 673.555664,23.074707 
	C674.716064,23.160259 675.664062,23.470942 676.549744,23.907921 
	C683.324036,27.250280 683.428467,27.516796 681.499390,34.812542 
	C679.893616,40.885590 678.438599,47.002842 676.635986,53.016338 
	C676.203796,54.457932 674.685059,56.632645 673.618164,56.660923 
	C663.235291,56.936123 652.842163,56.826447 642.125916,56.826447 
	C642.125916,53.806416 642.125916,51.363338 642.136841,48.466557 
z"/>
<path fill="#9B9A9C" opacity="1.000000" stroke="none" 
	d="
M26.055788,137.320038 
	C32.584770,138.411240 39.137875,140.167740 45.803650,141.188339 
	C58.107552,143.072128 68.622543,138.888016 77.754868,130.751419 
	C78.827263,129.795959 79.934738,128.879868 81.894630,127.201744 
	C83.138077,131.741516 84.162865,135.483002 85.292488,139.618835 
	C70.583450,155.382874 42.024860,154.245743 26.055788,137.320038 
z"/>
<path fill="#9C9C9A" opacity="1.000000" stroke="none" 
	d="
M740.998718,55.574577 
	C736.919434,58.971264 732.853149,61.965729 727.789124,65.694923 
	C731.796021,46.921406 735.545654,29.353270 739.495972,11.507998 
	C742.990845,11.230860 746.285095,11.230860 750.279358,11.230860 
	C747.096863,26.320307 744.054321,40.746330 740.998718,55.574577 
z"/>
<path fill="#9B9A9D" opacity="1.000000" stroke="none" 
	d="
M374.087097,54.738266 
	C369.970673,58.374329 365.877838,61.604774 360.842529,65.579094 
	C364.794220,46.906593 368.511353,29.342260 372.421082,11.493889 
	C375.900482,11.209850 379.187347,11.209850 383.311066,11.209850 
	C380.152466,26.014359 377.131592,40.173504 374.087097,54.738266 
z"/>
<path fill="#9A999A" opacity="1.000000" stroke="none" 
	d="
M313.948639,140.544098 
	C319.959595,140.094788 325.962738,139.826599 331.942627,140.088257 
	C335.187561,140.230270 337.257996,139.182327 338.928101,136.523972 
	C340.953369,133.300308 343.209686,130.221771 345.904358,126.296143 
	C348.877960,129.437454 351.543091,132.252899 354.315979,135.391907 
	C349.787903,146.330856 342.245605,151.203888 330.269012,149.159668 
	C324.796936,148.225708 319.033203,149.000870 312.657471,149.000870 
	C313.134247,145.985779 313.532684,143.465897 313.948639,140.544098 
z"/>
<path fill="#9C9B98" opacity="1.000000" stroke="none" 
	d="
M615.005859,53.498215 
	C606.760864,50.416145 604.084656,44.512028 606.848511,35.934376 
	C609.657532,27.216896 618.292175,21.313475 625.748657,23.179321 
	C629.765808,24.184521 631.825378,27.007423 632.136963,31.505213 
	C621.020508,32.986389 614.799866,40.668278 615.005859,53.498215 
z"/>
<path fill="#9E9D9A" opacity="1.000000" stroke="none" 
	d="
M581.075928,83.301208 
	C591.912292,86.648628 602.956909,90.024544 613.691956,94.197067 
	C616.600220,95.327484 618.572327,98.866531 621.011475,101.647293 
	C613.071838,99.346291 604.846252,97.258255 597.199341,93.865860 
	C591.469421,91.323921 586.484497,87.102745 581.075928,83.301208 
z"/>
<path fill="#9E9D9B" opacity="1.000000" stroke="none" 
	d="
M602.711731,125.558151 
	C596.214600,124.548203 593.192139,119.882607 593.087158,110.566216 
	C595.904480,110.161392 598.677246,110.161392 601.700745,110.161392 
	C602.041504,115.443214 602.354614,120.297523 602.711731,125.558151 
z"/>
<path fill="#9C98A4" opacity="1.000000" stroke="none" 
	d="
M76.105469,94.739761 
	C78.198250,94.344887 80.285591,94.344887 83.024361,94.344887 
	C82.216789,97.573555 81.516090,100.374901 80.627014,103.430771 
	C78.820992,103.597313 77.203354,103.509331 74.964905,103.387581 
	C75.369171,100.448372 75.734604,97.791504 76.105469,94.739761 
z"/>
<path fill="#9B9A9C" opacity="1.000000" stroke="none" 
	d="
M205.892731,135.431274 
	C206.078751,135.332809 206.394516,135.477020 206.843399,135.852783 
	C206.658493,135.947540 206.340485,135.810745 205.892731,135.431274 
z"/>
<path fill="#9C9B9A" opacity="1.000000" stroke="none" 
	d="
M963.964355,137.239914 
	C964.189819,137.146774 964.526794,137.314499 964.937744,137.758606 
	C964.699768,137.856903 964.387878,137.678848 963.964355,137.239914 
z"/>
<path fill="#9B9A9C" opacity="1.000000" stroke="none" 
	d="
M443.904175,136.170441 
	C444.136658,136.077454 444.502045,136.251770 444.941040,136.724518 
	C444.688782,136.827896 444.362915,136.632812 443.904175,136.170441 
z"/>
<path fill="#9B9A9C" opacity="1.000000" stroke="none" 
	d="
M24.940403,136.317383 
	C25.174854,136.194046 25.538227,136.313324 25.959238,136.725372 
	C25.701025,136.865433 25.385176,136.712708 24.940403,136.317383 
z"/>
<path fill="#9E9D9A" opacity="1.000000" stroke="none" 
	d="
M580.051758,82.019119 
	C580.290161,81.965240 580.611023,82.198822 580.979187,82.725662 
	C580.729065,82.781471 580.431641,82.544029 580.051758,82.019119 
z"/>
<path fill="#9C9B9A" opacity="1.000000" stroke="none" 
	d="
M900.961060,67.710251 
	C900.694824,67.783737 900.360107,67.555397 899.961182,66.998856 
	C900.228760,66.916573 900.560669,67.162491 900.961060,67.710251 
z"/>
<path fill="#9B9A9C" opacity="1.000000" stroke="none" 
	d="
M532.884155,66.857635 
	C532.629028,67.086571 532.365112,66.942924 532.103577,66.417496 
	C532.346252,66.224052 532.602722,66.373825 532.884155,66.857635 
z"/>
<path fill="#9C9B9A" opacity="1.000000" stroke="none" 
	d="
M1021.908447,62.871986 
	C1021.690735,63.085106 1021.450134,62.964611 1021.209534,62.491943 
	C1021.417114,62.326244 1021.642395,62.459114 1021.908447,62.871986 
z"/>
<path fill="#9A999C" opacity="1.000000" stroke="none" 
	d="
M359.903992,121.726173 
	C352.813324,120.879669 349.672882,116.844627 351.080566,110.043259 
	C353.022491,100.660301 355.095093,91.303665 357.192596,81.953896 
	C358.470032,76.259628 362.506409,72.897652 367.578796,70.821129 
	C372.286316,68.893982 376.160278,72.505676 376.519043,79.593620 
	C373.045135,82.870888 368.218140,85.200203 367.192657,88.657173 
	C363.990753,99.451065 362.225891,110.671242 359.903992,121.726173 
z"/>
<path fill="#FCFBFE" opacity="1.000000" stroke="none" 
	d="
M360.266541,121.738052 
	C362.225891,110.671242 363.990753,99.451065 367.192657,88.657173 
	C368.218140,85.200203 373.045135,82.870888 376.473145,79.981903 
	C376.326843,92.114761 374.603729,104.080902 368.479767,114.807426 
	C366.840057,117.679489 363.297852,119.465393 360.266541,121.738052 
z"/>
<path fill="#FFFEFE" opacity="1.000000" stroke="none" 
	d="
M674.294189,118.269119 
	C674.114746,117.183228 674.247375,115.828171 674.697021,114.216507 
	C674.878174,115.306580 674.742249,116.653259 674.294189,118.269119 
z"/>
<path fill="#9C9C9A" opacity="1.000000" stroke="none" 
	d="
M964.563965,121.100052 
	C958.690552,121.751060 954.136414,117.202583 955.285706,111.718567 
	C957.492615,101.188087 959.749939,90.667908 962.044739,80.156204 
	C963.349670,74.178680 972.908752,68.523140 977.900085,71.418404 
	C979.786255,72.512505 980.019043,76.457008 980.626709,79.574463 
	C977.219360,83.154778 972.573608,85.778854 971.470886,89.463287 
	C968.384949,99.774338 966.763367,110.523666 964.563965,121.100052 
z"/>
<path fill="#FDFDFA" opacity="1.000000" stroke="none" 
	d="
M964.973633,121.158615 
	C966.763367,110.523666 968.384949,99.774338 971.470886,89.463287 
	C972.573608,85.778854 977.219360,83.154778 980.589050,79.989151 
	C980.908142,91.994598 978.852295,103.679802 973.055176,114.321861 
	C971.504395,117.168594 967.994019,118.947838 964.973633,121.158615 
z"/>
<path fill="#9C9B99" opacity="1.000000" stroke="none" 
	d="
M844.944946,127.074631 
	C840.050781,128.197800 836.580505,126.212288 836.266663,120.617043 
	C835.250000,102.489853 837.332703,84.878853 847.295654,69.032341 
	C847.471924,68.751999 847.681396,68.492119 847.880249,68.226364 
	C850.377258,64.888451 853.720459,62.984650 857.798523,64.133194 
	C861.984741,65.312202 862.026367,69.150917 861.645386,73.240730 
	C859.182251,75.806236 856.501526,77.518547 855.089844,79.963547 
	C846.676025,94.535927 844.647522,110.575439 844.944946,127.074631 
z"/>
<path fill="#FEFDFB" opacity="1.000000" stroke="none" 
	d="
M845.308472,127.051910 
	C844.647522,110.575439 846.676025,94.535927 855.089844,79.963547 
	C856.501526,77.518547 859.182251,75.806236 861.625854,73.629227 
	C862.492615,87.257866 860.478821,100.670921 855.828430,113.586189 
	C853.892334,118.963036 851.838318,124.661125 845.308472,127.051910 
z"/>
<path fill="#9A999B" opacity="1.000000" stroke="none" 
	d="
M240.047180,127.067436 
	C236.565002,128.917587 234.116440,127.256332 232.826736,124.268738 
	C231.740784,121.753136 231.086319,118.843605 231.076782,116.105545 
	C231.024826,101.177162 233.219086,86.650581 239.998840,73.134010 
	C241.025955,71.086296 242.501083,69.226357 243.970001,67.445381 
	C246.530411,64.341019 250.350922,62.539581 253.658524,64.436378 
	C255.666779,65.588036 256.017700,69.629761 256.789917,72.934540 
	C253.973969,76.333603 250.793747,78.815186 249.107620,82.070633 
	C241.817383,96.146057 239.775940,111.402679 240.047180,127.067436 
z"/>
<path fill="#FCFCFE" opacity="1.000000" stroke="none" 
	d="
M240.406799,127.072449 
	C239.775940,111.402679 241.817383,96.146057 249.107620,82.070633 
	C250.793747,78.815186 253.973969,76.333603 256.769226,73.372856 
	C258.049652,86.165039 255.723221,98.669456 251.998489,110.921585 
	C250.806442,114.842606 248.913101,118.664497 246.694580,122.116547 
	C245.364883,124.185577 242.784622,125.450912 240.406799,127.072449 
z"/>
<path fill="#9A999C" opacity="1.000000" stroke="none" 
	d="
M477.312927,126.953102 
	C472.901398,128.048279 469.690399,126.201355 469.190948,121.254280 
	C468.632172,115.719788 468.126709,109.908806 469.199982,104.538292 
	C471.292236,94.069153 474.387360,83.790512 477.339874,73.511322 
	C477.953308,71.375740 479.618378,69.476929 481.034149,67.651558 
	C483.491180,64.483673 486.941742,63.028214 490.744263,64.157967 
	C494.914429,65.396980 494.632294,69.403152 494.581390,73.290123 
	C491.505798,76.722900 488.030121,79.301132 486.254211,82.753685 
	C479.144775,96.575241 477.512451,111.652489 477.312927,126.953102 
z"/>
<path fill="#FCFBFD" opacity="1.000000" stroke="none" 
	d="
M477.652100,126.981293 
	C477.512451,111.652489 479.144775,96.575241 486.254211,82.753685 
	C488.030121,79.301132 491.505798,76.722900 494.561798,73.677750 
	C495.048828,87.968437 493.160004,102.028267 487.854218,115.417229 
	C485.951111,120.219688 483.931213,125.416077 477.652100,126.981293 
z"/>
</svg>